<?xml version="1.0" standalone="no"?>
<!DOCTYPE svg PUBLIC "-//W3C//DTD SVG 20010904//EN"
 "http://www.w3.org/TR/2001/REC-SVG-20010904/DTD/svg10.dtd">
<svg version="1.0" xmlns="http://www.w3.org/2000/svg"
 width="512.000000pt" height="512.000000pt" viewBox="0 0 512.000000 512.000000"
 preserveAspectRatio="xMidYMid meet">
<metadata>
Created by potrace 1.11, written by Peter Selinger 2001-2013
</metadata>
<g transform="translate(0.000000,512.000000) scale(0.100000,-0.100000)"
fill="#000000" stroke="none">
<path d="M935 4889 c-183 -39 -331 -121 -467 -261 -100 -103 -177 -241 -221
-396 l-22 -77 -2 -1570 c-1 -904 2 -1591 7 -1620 23 -126 36 -165 93 -280 80
-159 229 -306 394 -389 69 -35 192 -75 265 -85 37 -6 692 -9 1618 -8 l1555 2
88 28 c145 45 256 108 375 212 82 71 191 241 232 360 21 61 24 75 40 160 5 28
9 714 9 1590 0 1689 3 1614 -60 1775 -82 213 -237 383 -444 487 -52 27 -132
55 -224 80 -14 4 -728 8 -1586 10 -1505 2 -1563 1 -1650 -18z"/>
</g>
</svg>
